<?xml version="1.0" encoding="iso-8859-1"?>
<!-- Generator: Adobe Illustrator 19.0.0, SVG Export Plug-In . SVG Version: 6.00 Build 0)  -->
<svg xmlns="http://www.w3.org/2000/svg" xmlns:xlink="http://www.w3.org/1999/xlink" version="1.1" id="Layer_1" x="0px" y="0px" viewBox="0 0 512 512" style="enable-background:new 0 0 512 512;" xml:space="preserve" width="512" height="512">
<g>
	<g>
		<g>
			<g>
				<g>
					<g>
						<path style="fill:#FF9C43;" d="M450.002,129.78c-4.088-0.366-7.962,0.404-11.349,2.028c-5.33,2.556-11.663,1.301-16.012-2.702        c-4.763-4.385-11.207-6.969-18.258-6.675c-12.848,0.536-23.439,10.895-24.237,23.729        c-0.917,14.749,10.773,26.996,25.323,26.996c9.724,0,33.447,0,42.535,0c12.821,0,23.049-11.102,21.595-24.217        C468.475,138.802,460.16,130.689,450.002,129.78z"/>
						<g>
							<g>
								<g>
									<path style="fill:#D6D6D6;" d="M120.376,73.498c-4.267,0-7.726-3.459-7.726-7.726v-12.59c0-4.268,3.459-7.726,7.726-7.726           s7.726,3.459,7.726,7.726v12.59C128.102,70.039,124.643,73.498,120.376,73.498z"/>
								</g>
							</g>
						</g>
						<g>
							<g>
								<g>
									<path style="fill:#D6D6D6;" d="M338.631,44.767c-3.108,0-6.038-1.888-7.216-4.963l-4.506-11.756           c-1.527-3.985,0.465-8.453,4.45-9.98c3.983-1.527,8.453,0.465,9.98,4.449l4.506,11.756c1.527,3.985-0.465,8.453-4.45,9.98           C340.485,44.602,339.55,44.767,338.631,44.767z"/>
								</g>
							</g>
						</g>
					</g>
					<g>
						<path style="fill:#CC966A;" d="M75.793,494.302h-6.38c-7.122,0-12.896-5.774-12.896-12.896v-137.01h32.171v137.01        C88.689,488.528,82.915,494.302,75.793,494.302z"/>
						<path style="fill:#CC966A;" d="M443.114,494.445h-6.38c-7.122,0-12.896-5.774-12.896-12.896v-137.01h32.171v137.01        C456.009,488.671,450.236,494.445,443.114,494.445z"/>
					</g>
					<g>
						<g>
							<path style="fill:#345863;" d="M474.76,431.47H37.265c-11.431,0-20.698-9.267-20.698-20.698V260.407         c0-11.431,9.267-20.698,20.698-20.698H474.76c11.431,0,20.698,9.267,20.698,20.698v150.365         C495.459,422.203,486.192,431.47,474.76,431.47z"/>
						</g>
					</g>
					<g>
						<path style="fill:#1E4751;" d="M474.76,239.708h-32.512v171.064c0,11.431-9.267,20.698-20.698,20.698h53.21        c11.431,0,20.698-9.267,20.698-20.698V260.407C495.459,248.975,486.192,239.708,474.76,239.708z"/>
					</g>
				</g>
			</g>
			<g>
				<g>
					<g>
						<path style="fill:#D6D6D6;" d="M45.5,251.011c-2.006,0-4.009-0.776-5.523-2.322c-2.984-3.05-2.932-7.942,0.118-10.927        c6.703-6.56,10.868-16.846,10.868-26.843v-14.981c0-4.268,3.459-7.726,7.726-7.726s7.726,3.459,7.726,7.726v14.981        c0,14.217-5.799,28.381-15.513,37.887C49.4,250.278,47.449,251.011,45.5,251.011z"/>
					</g>
				</g>
				<g>
					<g>
						<path style="fill:#D6D6D6;" d="M192.125,251.011c-1.95,0-3.9-0.733-5.404-2.204c-9.713-9.506-15.512-23.67-15.512-37.887        v-14.981c0-4.268,3.459-7.726,7.726-7.726c4.267,0,7.726,3.459,7.726,7.726v14.981c0,9.997,4.164,20.283,10.868,26.843        c3.049,2.985,3.102,7.877,0.117,10.927C196.134,250.236,194.13,251.011,192.125,251.011z"/>
					</g>
				</g>
			</g>
			<g>
				<g>
					<g>
						<path style="fill:#D6D6D6;" d="M304,251.011c-2.006,0-4.009-0.776-5.523-2.322c-2.984-3.05-2.932-7.942,0.118-10.927        c6.703-6.56,10.868-16.846,10.868-26.843v-14.981c0-4.268,3.459-7.726,7.726-7.726c4.267,0,7.726,3.459,7.726,7.726v14.981        c0,14.217-5.799,28.381-15.513,37.887C307.9,250.278,305.949,251.011,304,251.011z"/>
					</g>
				</g>
				<g>
					<g>
						<path style="fill:#D6D6D6;" d="M450.624,251.011c-1.95,0-3.9-0.733-5.404-2.204c-9.713-9.506-15.512-23.67-15.512-37.887        v-14.981c0-4.268,3.459-7.726,7.726-7.726s7.726,3.459,7.726,7.726v14.981c0,9.997,4.164,20.283,10.868,26.843        c3.049,2.985,3.102,7.877,0.117,10.927C454.633,250.236,452.629,251.011,450.624,251.011z"/>
					</g>
				</g>
			</g>
		</g>
		<path style="fill:#E02B3D;" d="M43.172,329.043L43.172,329.043c-14.694,0-26.605-11.911-26.605-26.605v-36.269h53.21v36.269    C69.777,317.132,57.866,329.043,43.172,329.043z"/>
		<path style="fill:#F43B45;" d="M96.382,329.043L96.382,329.043c-14.694,0-26.605-11.911-26.605-26.605v-36.269h53.21v36.269    C122.987,317.132,111.076,329.043,96.382,329.043z"/>
		<path style="fill:#E02B3D;" d="M149.592,329.043L149.592,329.043c-14.694,0-26.605-11.911-26.605-26.605v-36.269h53.21v36.269    C176.198,317.132,164.286,329.043,149.592,329.043z"/>
		<path style="fill:#F43B45;" d="M202.803,329.043L202.803,329.043c-14.694,0-26.605-11.911-26.605-26.605v-36.269h53.21v36.269    C229.408,317.132,217.496,329.043,202.803,329.043z"/>
		<path style="fill:#E02B3D;" d="M256.013,329.043L256.013,329.043c-14.694,0-26.605-11.911-26.605-26.605v-36.269h53.21v36.269    C282.618,317.132,270.706,329.043,256.013,329.043z"/>
		<path style="fill:#F43B45;" d="M309.223,329.043L309.223,329.043c-14.694,0-26.605-11.911-26.605-26.605v-36.269h53.21v36.269    C335.828,317.132,323.917,329.043,309.223,329.043z"/>
		<path style="fill:#E02B3D;" d="M362.433,329.043L362.433,329.043c-14.694,0-26.605-11.911-26.605-26.605v-36.269h53.21v36.269    C389.038,317.132,377.127,329.043,362.433,329.043z"/>
		<path style="fill:#F43B45;" d="M415.644,329.043L415.644,329.043c-14.694,0-26.605-11.911-26.605-26.605v-36.269h53.21v36.269    C442.249,317.132,430.337,329.043,415.644,329.043z"/>
		<path style="fill:#E02B3D;" d="M468.854,329.043L468.854,329.043c-14.694,0-26.605-11.911-26.605-26.605v-36.269h53.21v36.269    C495.459,317.132,483.547,329.043,468.854,329.043z"/>
	</g>
	<g>
		<g>
			<path style="fill:#EDEDED;" d="M120.376,65.771c-53.908,0-97.609,45.591-97.609,101.83h195.217     C217.984,111.362,174.283,65.771,120.376,65.771z"/>
		</g>
		<path style="fill:#D6D6D6;" d="M120.376,65.771c-9.195,0-18.092,1.329-26.527,3.808c41.016,12.057,71.082,51.376,71.082,98.022    h53.054C217.984,111.362,174.283,65.771,120.376,65.771z"/>
		<g>
			<path style="fill:#EDEDED;" d="M195.641,206.97H45.11c-5.536,0-10.372-3.743-11.759-9.103l-5.4-20.859h184.85l-5.4,20.859     C206.013,203.227,201.178,206.97,195.641,206.97z"/>
			<path style="fill:#D6D6D6;" d="M218.477,179.292H22.274c-6.456,0-11.69-5.234-11.69-11.69v0c0-6.456,5.234-11.69,11.69-11.69     h196.204c6.456,0,11.69,5.234,11.69,11.69v0C230.168,174.058,224.934,179.292,218.477,179.292z"/>
		</g>
	</g>
	<g>
		<g>
			<g>
				<path style="fill:#EDEDED;" d="M452.578,206.97H302.046c-5.536,0-10.372-3.743-11.759-9.103l-5.4-20.859h184.85l-5.4,20.859      C462.95,203.227,458.114,206.97,452.578,206.97z"/>
				<path style="fill:#D6D6D6;" d="M475.414,179.292H279.21c-6.456,0-11.69-5.234-11.69-11.69v0c0-6.456,5.234-11.69,11.69-11.69      h196.204c6.456,0,11.69,5.234,11.69,11.69v0C487.104,174.058,481.87,179.292,475.414,179.292z"/>
			</g>
		</g>
	</g>
	<path style="fill:#EDEDED;" d="M457.75,87.917c1.974-0.757,2.82-3.096,1.782-4.938c-24.21-42.985-75.334-63.406-120.903-45.94   c-46.798,17.937-71.247,69.511-58.282,118.872L457.75,87.917z"/>
	<path style="fill:#D6D6D6;" d="M459.532,82.979c-24.21-42.985-75.334-63.406-120.903-45.94   c-9.877,3.786-18.745,9.084-26.489,15.529c39.547-4.755,79.306,16.078,99.328,53.088l46.282-17.739   C459.724,87.16,460.57,84.821,459.532,82.979z"/>
	<path style="fill:#F43B45;" d="M498.77,266.169H13.23c-7.307,0-13.23-5.923-13.23-13.23v0c0-7.307,5.923-13.23,13.23-13.23H498.77   c7.307,0,13.23,5.923,13.23,13.23v0C512,260.246,506.077,266.169,498.77,266.169z"/>
</g>















</svg>
