<?xml version="1.0"?>
<svg xmlns="http://www.w3.org/2000/svg" xmlns:xlink="http://www.w3.org/1999/xlink" version="1.1" id="Capa_1" x="0px" y="0px" viewBox="0 0 512 512" style="enable-background:new 0 0 512 512;" xml:space="preserve" width="512px" height="512px" class=""><g><path style="fill:#FFE26B;" d="M100.209,508.195c4.199,0,7.604-3.405,7.604-7.604V382.923c0-4.199-3.405-7.604-7.604-7.604  s-7.604,3.405-7.604,7.604v117.668C92.605,504.79,96.01,508.195,100.209,508.195z" data-original="#FFE26B"/><path style="fill:#38CDDE;" d="M65.274,348.034l-8.777-9.827c-10.367-11.608-28.683-11.1-38.391,1.065l-4.098,5.135  c-1.988,2.491,0.028,6.141,3.195,5.785l0,0c13.726-1.542,27.484,2.614,38.059,11.498l0,0" data-original="#38CDDE"/><path style="fill:#F9F1E4" d="M50.186,380.018v52.417l36.499-35.992l89.869,3.407l-24.454-24.454h-0.01  c2.91-5.485,4.552-11.751,4.552-18.391v-4.157h21.299c3.916,0,7.089-3.174,7.089-7.089v-58.143  c-30.406-34.603-68.943-13.515-68.943,16.566v32.444H93.579C69.614,336.624,50.186,356.052,50.186,380.018z" data-original="#F5F5F5" class="active-path" data-old_color="#F8F0E3"/><path style="fill:#3C3B40;" d="M166.78,312.799c2.48,0,4.561-2.083,4.562-4.562c0.001-2.485-2.082-4.556-4.562-4.562  c-2.481-0.006-4.562,2.089-4.562,4.562C162.218,310.712,164.302,312.799,166.78,312.799z" data-original="#3C3B40" class=""/><g>
	<path style="fill:#F9F1E4" d="M165.771,440.039c3.19,0,6.161-2.023,7.218-5.216l10.784-32.582c1.274-3.85-0.698-8.023-4.48-9.484   l-45.597-17.603c-3.917-1.513-8.32,0.437-9.832,4.355s0.437,8.32,4.355,9.832l38.842,14.995l-8.509,25.707   c-1.32,3.988,0.843,8.288,4.829,9.608C164.174,439.914,164.98,440.039,165.771,440.039z" data-original="#F5F5F5" class="active-path" data-old_color="#F8F0E3"/>
	<path style="fill:#F9F1E4" d="M27.54,445.277c0.568,0,1.144-0.064,1.721-0.197l22.643-5.239c2.603-0.602,4.698-2.526,5.52-5.067   L70.6,394.051c1.293-3.996-0.898-8.282-4.894-9.576c-3.997-1.292-8.282,0.898-9.576,4.894l-11.851,36.626l-18.448,4.267   c-4.092,0.947-6.641,5.031-5.695,9.123C20.951,442.9,24.08,445.277,27.54,445.277z" data-original="#F5F5F5" class="active-path" data-old_color="#F8F0E3"/>
</g><g>
	<path style="fill:#38CDDE;" d="M116.09,336.623v13.52c0,8.772-7.11,15.882-15.882,15.882l0,0c-8.772,0-15.882-7.11-15.882-15.882   v-12.526" data-original="#38CDDE"/>
	<path style="fill:#38CDDE;" d="M116.087,304.181v32.444l10.818,1.693c0,0-10.818-34.137,11.487-48.665   c22.305-14.539,46.638,9.459,46.638,9.459v-11.497C154.624,253.01,116.087,274.099,116.087,304.181z" data-original="#38CDDE"/>
</g><g>
	<path style="fill:#E8E8E8;" d="M145.824,316.682l6.266,58.713c2.91-5.485,4.552-11.751,4.552-18.391v-4.157L145.824,316.682z" data-original="#E8E8E8" class=""/>
	<path style="fill:#E8E8E8;" d="M144.431,284.247c4.199,0,7.604-3.405,7.604-7.604v-12.342c0-4.199-3.405-7.604-7.604-7.604   s-7.604,3.405-7.604,7.604v12.342C136.827,280.843,140.231,284.247,144.431,284.247z" data-original="#E8E8E8" class=""/>
</g><path style="fill:#FFE26B;" d="M411.795,508.195c-4.199,0-7.604-3.405-7.604-7.604V382.923c0-4.199,3.405-7.604,7.604-7.604  c4.199,0,7.604,3.405,7.604,7.604v117.668C419.399,504.79,415.994,508.195,411.795,508.195z" data-original="#FFE26B"/><path style="fill:#41C476;" d="M446.73,348.034l8.777-9.827c10.367-11.608,28.683-11.1,38.391,1.065l4.098,5.135  c1.988,2.491-0.028,6.141-3.195,5.785l0,0c-13.726-1.542-27.484,2.614-38.059,11.498l0,0" data-original="#41C476" class=""/><path style="fill:#F9F1E4" d="M461.817,380.018v52.417l-36.499-35.992l-89.869,3.407l24.454-24.454h0.01  c-2.91-5.485-4.552-11.751-4.552-18.391v-4.157h-21.299c-3.916,0-7.089-3.174-7.089-7.089v-58.143  c30.406-34.603,68.943-13.515,68.943,16.566v32.444h22.508C442.389,336.624,461.817,356.052,461.817,380.018z" data-original="#F5F5F5" class="active-path" data-old_color="#F8F0E3"/><path style="fill:#3C3B40;" d="M345.223,312.799c-2.48,0-4.561-2.083-4.562-4.562c-0.001-2.485,2.082-4.556,4.562-4.562  c2.481-0.006,4.562,2.089,4.562,4.562C349.785,310.712,347.702,312.799,345.223,312.799z" data-original="#3C3B40" class=""/><g>
	<path style="fill:#F9F1E4" d="M346.233,440.039c-3.19,0-6.161-2.023-7.218-5.216l-10.784-32.582   c-1.274-3.85,0.698-8.023,4.48-9.484l45.597-17.603c3.917-1.513,8.32,0.437,9.832,4.355c1.513,3.918-0.437,8.32-4.355,9.832   l-38.842,14.995l8.509,25.707c1.32,3.988-0.842,8.288-4.829,9.608C347.831,439.914,347.024,440.039,346.233,440.039z" data-original="#F5F5F5" class="active-path" data-old_color="#F8F0E3"/>
	<path style="fill:#F9F1E4" d="M484.464,445.277c-0.568,0-1.144-0.064-1.721-0.197l-22.643-5.239   c-2.603-0.602-4.698-2.526-5.52-5.067l-13.177-40.723c-1.293-3.996,0.898-8.282,4.894-9.576c3.997-1.292,8.282,0.898,9.576,4.894   l11.851,36.626l18.448,4.267c4.092,0.947,6.641,5.031,5.695,9.123C491.052,442.9,487.923,445.277,484.464,445.277z" data-original="#F5F5F5" class="active-path" data-old_color="#F8F0E3"/>
</g><g>
	<path style="fill:#41C476;" d="M427.677,337.617v12.526c0,8.772-7.11,15.882-15.882,15.882l0,0c-8.772,0-15.882-7.11-15.882-15.882   v-13.52" data-original="#41C476" class=""/>
	<path style="fill:#41C476;" d="M395.916,304.181v32.444l-10.818,1.693c0,0,10.818-34.137-11.487-48.665   c-22.305-14.539-46.638,9.459-46.638,9.459v-11.497C357.379,253.01,395.916,274.099,395.916,304.181z" data-original="#41C476" class=""/>
</g><g>
	<path style="fill:#E8E8E8;" d="M366.179,316.682l-6.266,58.713c-2.91-5.485-4.552-11.751-4.552-18.391v-4.157L366.179,316.682z" data-original="#E8E8E8" class=""/>
	<path style="fill:#E8E8E8;" d="M367.573,284.247c-4.199,0-7.604-3.405-7.604-7.604v-12.342c0-4.199,3.405-7.604,7.604-7.604   c4.199,0,7.604,3.405,7.604,7.604v12.342C375.177,280.843,371.773,284.247,367.573,284.247z" data-original="#E8E8E8" class=""/>
</g><polygon style="fill:#E73E77;" points="293.749,190.442 293.749,500.596 218.264,500.596 218.264,190.418 255.984,161.532 " data-original="#E73E77" class=""/><rect x="218.264" y="145.428" style="fill:#BF2046;" width="26.431" height="355.166" data-original="#BF2046" class=""/><path style="fill:#FFE26B;" d="M457.303,131.566v60.789l-2.547-1.95c-22.255-17.036-53.172-17.036-75.439,0l-2.547,1.95  l-2.536-1.939c-22.255-17.047-53.184-17.047-75.439,0l-2.547,1.939l-2.501-1.916l-0.034-0.023  c-22.267-17.047-53.195-17.047-75.451,0l-2.536,1.939l-2.523-1.939c-16.864-12.917-38.706-16.048-57.979-9.395  c-6.172,2.133-12.08,5.265-17.472,9.395l-2.536,1.939l-2.547-1.939c-22.255-17.047-53.184-17.047-75.439,0l-2.536,1.939v-60.789  l236.601-33.258L457.303,131.566z" data-original="#FFE26B"/><path style="fill:#FCC147;" d="M155.224,131.566v49.455c-6.172,2.133-12.08,5.265-17.472,9.395l-2.536,1.939l-2.547-1.939  c-22.255-17.047-53.184-17.047-75.439,0l-2.536,1.939v-60.789H155.224z" data-original="#FCC147" class=""/><g>
	<polygon style="fill:#F9F1E4" points="293.749,214.877 293.749,288.229 244.695,301.971 218.264,309.383 218.264,236.031    244.695,228.62  " data-original="#F5F5F5" class="active-path" data-old_color="#F8F0E3"/>
	<polygon style="fill:#F9F1E4" points="293.749,361.579 293.749,434.931 244.695,448.674 218.264,456.086 218.264,382.734    244.695,375.323  " data-original="#F5F5F5" class="active-path" data-old_color="#F8F0E3"/>
</g><g>
	<polygon style="fill:#D6D6D6" points="244.695,228.62 244.695,301.971 218.264,309.383 218.264,236.031  " data-original="#D6D6D6" class=""/>
	<polygon style="fill:#D6D6D6" points="244.695,375.323 244.695,448.674 218.264,456.086 218.264,382.734  " data-original="#D6D6D6" class=""/>
</g><polygon style="fill:#BF2046;" points="457.304,131.568 54.698,131.568 256.007,3.805 " data-original="#BF2046" class=""/><polygon style="fill:#E73E77;" points="457.304,131.568 155.219,131.568 256.004,3.805 " data-original="#E73E77" class=""/><path style="fill:#3C3B40;" d="M504.396,508.195H7.604c-4.199,0-7.604-3.405-7.604-7.604s3.405-7.604,7.604-7.604h496.792  c4.199,0,7.604,3.405,7.604,7.604S508.595,508.195,504.396,508.195z" data-original="#3C3B40" class=""/></g> </svg>
