<?xml version="1.0" encoding="iso-8859-1"?>
<!-- Generator: Adobe Illustrator 19.0.0, SVG Export Plug-In . SVG Version: 6.00 Build 0)  -->
<svg version="1.1" id="Capa_1" xmlns="http://www.w3.org/2000/svg" xmlns:xlink="http://www.w3.org/1999/xlink" x="0px" y="0px"
	 viewBox="0 0 512 512" style="enable-background:new 0 0 512 512;" xml:space="preserve">
<circle style="fill:#FFEDB1;" cx="144.02" cy="89.4" r="81.27"/>
<circle style="fill:#FFC350;" cx="144.02" cy="89.4" r="65.02"/>
<circle style="fill:#FFE17D;" cx="144.02" cy="89.4" r="12.19"/>
<g>
	<path style="fill:#FFAA46;" d="M144.021,65.016c-4.492,0-8.127-3.635-8.127-8.127V40.635c0-4.492,3.635-8.127,8.127-8.127
		s8.127,3.635,8.127,8.127v16.254C152.148,61.381,148.513,65.016,144.021,65.016z"/>
	<path style="fill:#FFAA46;" d="M144.021,146.286c-4.492,0-8.127-3.635-8.127-8.127v-16.254c0-4.492,3.635-8.127,8.127-8.127
		s8.127,3.635,8.127,8.127v16.254C152.148,142.651,148.513,146.286,144.021,146.286z"/>
	<path style="fill:#FFAA46;" d="M109.545,132c-2.079,0-4.159-0.794-5.746-2.381c-3.175-3.175-3.175-8.317,0-11.492l11.492-11.492
		c3.175-3.175,8.317-3.175,11.492,0c3.175,3.175,3.175,8.317,0,11.492l-11.492,11.492C113.704,131.206,111.624,132,109.545,132z"/>
	<path style="fill:#FFAA46;" d="M167.005,74.54c-2.079,0-4.159-0.794-5.746-2.381c-3.175-3.175-3.175-8.317,0-11.492l11.492-11.492
		c3.175-3.175,8.317-3.175,11.492,0s3.175,8.317,0,11.492l-11.492,11.492C171.164,73.746,169.085,74.54,167.005,74.54z"/>
	<path style="fill:#FFAA46;" d="M192.783,97.524h-16.254c-4.492,0-8.127-3.635-8.127-8.127s3.635-8.127,8.127-8.127h16.254
		c4.492,0,8.127,3.635,8.127,8.127S197.275,97.524,192.783,97.524z"/>
	<path style="fill:#FFAA46;" d="M111.513,97.524H95.259c-4.492,0-8.127-3.635-8.127-8.127s3.635-8.127,8.127-8.127h16.254
		c4.492,0,8.127,3.635,8.127,8.127S116.005,97.524,111.513,97.524z"/>
	<path style="fill:#FFAA46;" d="M121.037,74.54c-2.079,0-4.159-0.794-5.746-2.381l-11.492-11.492c-3.175-3.175-3.175-8.317,0-11.492
		s8.317-3.175,11.492,0l11.492,11.492c3.175,3.175,3.175,8.317,0,11.492C125.196,73.746,123.116,74.54,121.037,74.54z"/>
</g>
<path style="fill:#E88790;" d="M306.569,211.302c-0.333,0-0.675-0.024-1.016-0.063c-4.452-0.556-7.611-4.619-7.056-9.071
	L321.1,21.357C322.616,9.183,333.021,0,345.291,0h91.302c4.492,0,8.127,3.635,8.127,8.127s-3.635,8.127-8.127,8.127h-91.302
	c-4.087,0-7.556,3.063-8.063,7.119l-22.603,180.81C314.108,208.294,310.608,211.302,306.569,211.302z"/>
<path style="fill:#DBD9DC;" d="M342.336,504.579l-31.68-18.103c-2.532-1.447-4.095-4.14-4.095-7.056V292.571h-16.254V479.42
	c0,2.916-1.563,5.609-4.095,7.056l-31.68,18.103c-3.537,2.021-2.103,7.421,1.971,7.421h83.862
	C344.438,512,345.872,506.6,342.336,504.579z"/>
<path style="fill:#EDEBED;" d="M148.327,95.742l142.555,210.081c3.621,5.336,11.484,5.336,15.105,0L448.541,95.742
	c1.831-2.698-0.102-6.345-3.362-6.345h-293.49C148.429,89.397,146.496,93.044,148.327,95.742z"/>
<polygon style="fill:#EAB9BE;" points="320.846,154.413 326.942,105.651 310.563,105.651 304.467,154.413 "/>
<path style="fill:#DBD9DC;" d="M296.399,305.822L257.99,95.742c-0.494-2.698,0.027-6.345,0.906-6.345H151.689
	c-3.261,0-5.193,3.647-3.363,6.345l142.555,210.08c1.811,2.668,4.682,4.002,7.553,4.002
	C297.66,309.824,296.887,308.491,296.399,305.822z"/>
<path style="fill:#FFEDB1;" d="M291.71,278.095c3.224,4.752,10.225,4.752,13.45,0l92-135.578c-4.747,1.929-9.711,3.769-19.184,3.769
	c-19.912,0-19.912-8.127-39.824-8.127c-19.898,0-19.898,8.127-39.796,8.127c-19.881,0-19.881-8.127-39.762-8.127
	c-19.878,0-19.878,8.127-39.756,8.127c-9.433,0-14.387-1.83-19.117-3.753L291.71,278.095z"/>
<path id="SVGCleanerId_0" style="fill:#E88790;" d="M298.355,186.921c-19.881,0-19.881-8.127-39.762-8.127
	c-15.643,0-19.008,5.02-29.406,7.165l62.522,92.137c3.224,4.752,10.225,4.752,13.45,0l62.513-92.123
	c-10.466-2.137-13.818-7.178-29.52-7.178C318.253,178.794,318.253,186.921,298.355,186.921z"/>
<path style="fill:#FFE17D;" d="M265.826,138.6c-2.106-0.272-4.462-0.441-7.233-0.441c-19.878,0-19.878,8.127-39.756,8.127
	c-9.433,0-14.387-1.83-19.117-3.753l91.47,134.797L265.826,138.6z"/>
<g>
	<path id="SVGCleanerId_0_1_" style="fill:#E88790;" d="M298.355,186.921c-19.881,0-19.881-8.127-39.762-8.127
		c-15.643,0-19.008,5.02-29.406,7.165l62.522,92.137c3.224,4.752,10.225,4.752,13.45,0l62.513-92.123
		c-10.466-2.137-13.818-7.178-29.52-7.178C318.253,178.794,318.253,186.921,298.355,186.921z"/>
</g>
<path style="fill:#E3646F;" d="M273.578,180.999c-3.737-1.249-8.191-2.206-14.985-2.206c-15.643,0-19.008,5.02-29.406,7.165
	l62.002,91.372L273.578,180.999z"/>
<path style="fill:#EDCE96;" d="M174.693,105.651l27.412,40.396c10.675-10.939,18.234-24.841,21.404-40.396H174.693z"/>
<g>
</g>
<g>
</g>
<g>
</g>
<g>
</g>
<g>
</g>
<g>
</g>
<g>
</g>
<g>
</g>
<g>
</g>
<g>
</g>
<g>
</g>
<g>
</g>
<g>
</g>
<g>
</g>
<g>
</g>
</svg>
