<?xml version="1.0" encoding="iso-8859-1"?>
<!-- Generator: Adobe Illustrator 19.0.0, SVG Export Plug-In . SVG Version: 6.00 Build 0)  -->
<svg version="1.1" id="Capa_1" xmlns="http://www.w3.org/2000/svg" xmlns:xlink="http://www.w3.org/1999/xlink" x="0px" y="0px"
	 viewBox="0 0 512 512" style="enable-background:new 0 0 512 512;" xml:space="preserve">
<g>
	<path style="fill:#B6E4EA;" d="M411.855,220.324c-4.247,0-7.689-3.443-7.689-7.689v-45.847c0-4.247,3.442-7.689,7.689-7.689
		s7.689,3.443,7.689,7.689v45.847C419.544,216.881,416.102,220.324,411.855,220.324z"/>
	<path style="fill:#B6E4EA;" d="M93.132,220.324c-4.247,0-7.689-3.443-7.689-7.689v-45.847c0-4.247,3.442-7.689,7.689-7.689
		s7.689,3.443,7.689,7.689v45.847C100.821,216.881,97.379,220.324,93.132,220.324z"/>
</g>
<rect x="242.22" y="450.66" style="fill:#99382A;" width="29.17" height="36.637"/>
<path style="fill:#F7EDAA;" d="M505.422,454.879l0.617-214.045c-2.11-16.133-15.858-28.199-32.128-28.199H39.701
	c-16.271,0-30.018,12.066-32.128,28.199L5.961,454.757c-0.011,1.469,1.08,2.712,2.536,2.904c12.376,1.635,7.261,2.819,34.691-0.313
	c29.64-3.384,41.199-9.159,62.298-12.377c42.636-6.504,54.975,7.994,105.804,13.575c67.442,7.405,67.761-15.699,142.836-9.847
	c42.739,3.331,51.051,11.475,99.115,13.44c34.752,1.421,32.445-1.475,49.769-4.405C504.402,457.499,505.418,456.29,505.422,454.879z
	"/>
<g>
	<path style="fill:#F4DB95;" d="M50.126,444.971c-16.177,2.468-26.754,6.437-44.164,9.68l-0.001,0.106
		c-0.011,1.469,1.079,2.712,2.536,2.904c12.376,1.635,7.261,2.819,34.691-0.313c25.356-2.895,37.484-7.538,53.668-10.835
		C83.22,443.465,69.946,441.948,50.126,444.971z"/>
	<path style="fill:#F4DB95;" d="M473.911,212.634H418.55c16.271,0,30.018,12.066,32.128,28.199l-0.617,214.045
		c-0.004,1.411-1.02,2.62-2.411,2.855c-6.546,1.107-10.289,2.209-14.287,3.075c5.846,0.566,12.378,1.023,19.879,1.33
		c34.752,1.421,32.445-1.475,49.769-4.405c1.391-0.235,2.407-1.445,2.411-2.855l0.617-214.045
		C503.928,224.7,490.181,212.634,473.911,212.634z"/>
	<path style="fill:#F4DB95;" d="M298.766,448.699c-49.972-3.895-66.826,5.036-92.396,9.263c1.602,0.203,3.237,0.399,4.921,0.584
		c48.549,5.33,62.316-5.148,94.224-9.254C303.359,449.081,301.117,448.882,298.766,448.699z"/>
	<path style="fill:#F4DB95;" d="M389.603,310.304h-0.034c-4.231,0-7.67,3.421-7.688,7.657L381.31,452
		c5.436,0.918,10.366,1.902,15.224,2.887c0.094-0.474,0.147-0.963,0.149-1.464l0.576-135.398
		C397.277,313.779,393.849,310.322,389.603,310.304z"/>
	<path style="fill:#F4DB95;" d="M115.658,443.767l-0.24-136.154c-0.007-4.242-3.448-7.676-7.689-7.676h-0.014
		c-4.246,0.008-7.682,3.456-7.675,7.703l0.241,136.985c0.001,0.411,0.043,0.811,0.106,1.205c1.646-0.302,3.338-0.59,5.1-0.859
		C109.084,444.422,112.45,444.035,115.658,443.767z"/>
</g>
<path style="fill:#B64A07;" d="M389.282,512H124.33v-5.053c0-10.855,8.8-19.654,19.654-19.654h225.644
	c10.855,0,19.654,8.8,19.654,19.654L389.282,512L389.282,512z"/>
<path style="fill:#EF687E;" d="M266.62,21.594V4.151c0-2.292-1.858-4.151-4.151-4.151h-11.327c-2.292,0-4.151,1.858-4.151,4.151
	v17.443c0,16.37-2.79,32.621-8.251,48.053l0,0c-5.461,15.433-8.251,31.683-8.251,48.053v85.383c0,5.275,4.276,9.551,9.551,9.551
	h33.53c5.275,0,9.551-4.276,9.551-9.551v-85.382c0-16.37-2.79-32.621-8.251-48.054l0,0C269.41,54.215,266.62,37.964,266.62,21.594z"
	/>
<path style="fill:#E63952;" d="M274.871,69.647L274.871,69.647c-5.461-15.433-8.251-31.683-8.251-48.054V4.151
	c0-2.292-1.858-4.151-4.151-4.151h-8.667c2.292,0,4.151,1.858,4.151,4.151v17.443c0,16.37-1.043,33.945,4.418,49.377
	c5.461,15.433,3.834,30.36,3.834,46.73v85.382c0,5.275-4.276,9.551-9.551,9.551h16.917c5.275,0,9.551-4.276,9.551-9.551v-85.382
	C283.122,101.331,280.331,85.08,274.871,69.647z"/>
<path style="fill:#FFDB2D;" d="M264.098,138.237l19.024-19.024v-1.512c0-12.218-1.556-24.369-4.615-36.163l0,0
	c-11.985-11.985-31.417-11.985-43.402,0l0,0c-3.059,11.794-4.615,23.945-4.615,36.162v1.513l19.024,19.024
	C253.541,142.264,260.07,142.264,264.098,138.237z"/>
<path style="fill:#FFBF00;" d="M278.507,81.538L278.507,81.538c-4.382-4.382-9.761-7.155-15.407-8.332
	c4.564,14.644,3.105,28.916,3.105,44.495v18.429l16.917-16.917v-1.512C283.122,105.483,281.566,93.332,278.507,81.538
	L278.507,81.538z"/>
<g>
	<path style="fill:#B6E4EA;" d="M414.536,166.788h-5.362c-8.799,0-15.933-7.133-15.933-15.933V84.804
		c0-0.819,0.664-1.483,1.483-1.483h34.261c0.819,0,1.483,0.664,1.483,1.483v66.051C430.468,159.654,423.335,166.788,414.536,166.788
		z"/>
	<path style="fill:#B6E4EA;" d="M95.813,166.788h-5.362c-8.799,0-15.933-7.133-15.933-15.933V84.804
		c0-0.819,0.664-1.483,1.483-1.483h34.261c0.819,0,1.483,0.664,1.483,1.483v66.051C111.745,159.654,104.612,166.788,95.813,166.788z
		"/>
</g>
<g>
	<path style="fill:#EF687E;" d="M90.451,166.787h5.362c8.799,0,15.933-7.133,15.933-15.933V121.06H74.518v29.794
		C74.518,159.654,81.651,166.787,90.451,166.787z"/>
	<path style="fill:#EF687E;" d="M409.173,166.787h5.362c8.799,0,15.933-7.133,15.933-15.933V121.06h-37.227v29.794
		C393.241,159.654,400.374,166.787,409.173,166.787z"/>
</g>
<path style="fill:#F996B1;" d="M171.465,212.634h175.66l-80.176,85.24c-5.449,5.793-14.695,5.663-19.978-0.282L171.465,212.634z"/>
<g>
</g>
<g>
</g>
<g>
</g>
<g>
</g>
<g>
</g>
<g>
</g>
<g>
</g>
<g>
</g>
<g>
</g>
<g>
</g>
<g>
</g>
<g>
</g>
<g>
</g>
<g>
</g>
<g>
</g>
</svg>
