<?xml version="1.0" encoding="iso-8859-1"?>
<!-- Generator: Adobe Illustrator 19.0.0, SVG Export Plug-In . SVG Version: 6.00 Build 0)  -->
<svg version="1.1" id="Capa_1" xmlns="http://www.w3.org/2000/svg" xmlns:xlink="http://www.w3.org/1999/xlink" x="0px" y="0px"
	 viewBox="0 0 512.001 512.001" style="enable-background:new 0 0 512.001 512.001;" xml:space="preserve">
<g>
	<circle style="fill:#6EDCF9;" cx="96.991" cy="41.5" r="40.427"/>
	<path style="fill:#6EDCF9;" d="M178.332,262.356V161.25c0-29.9-24.324-54.225-54.223-54.225H69.884
		c-29.898,0-54.223,24.325-54.223,54.225v101.107c0,9.903,8.055,17.959,17.956,17.959h9.196l-26.389,73.361
		c-0.455,1.262-0.266,2.667,0.506,3.764c0.771,1.098,2.029,1.75,3.371,1.75h25.832v132.389c0,10.686,8.695,19.379,19.382,19.379
		c10.685,0,19.378-8.694,19.378-19.379V359.19h24.208v132.389c0,10.686,8.693,19.379,19.378,19.379
		c10.686,0,19.38-8.694,19.38-19.379V359.19c0.878,0,25.999,0,25.856,0c3.03,0,5.022-3.169,3.72-5.894l-26.256-72.981h9.196
		C170.277,280.315,178.332,272.259,178.332,262.356z"/>
	<circle style="fill:#6EDCF9;" cx="414.626" cy="40.659" r="40.614"/>
</g>
<g>
	<path style="fill:#37CAE2;" d="M117.211,6.496c-5.948-3.442-12.848-5.422-20.214-5.422c-22.327,0-40.428,18.101-40.428,40.427
		c0,31.195,33.853,50.509,60.642,35.004C90.279,60.917,90.287,22.079,117.211,6.496z"/>
	<path style="fill:#37CAE2;" d="M434.839,5.437c-26.933-15.495-60.829,3.961-60.829,35.222c0,31.298,33.921,50.699,60.829,35.22
		C407.658,60.245,407.669,21.065,434.839,5.437z"/>
</g>
<path style="fill:#6EDCF9;" d="M441.861,106.488h-54.474c-30.086,0-54.476,24.391-54.476,54.478v137.346
	c0,9.13,6.787,16.656,15.585,17.857h15.029v16.571v-2.643c0,10.6,0,157.072,0,162.4c0,10.754,8.719,19.47,19.469,19.47
	c10.754,0,19.472-8.716,19.472-19.47c0-7.166,0-140.51,0-148.551c0-6.775,5.491-12.269,12.266-12.269
	c6.776,0,12.269,5.493,12.269,12.269c0,5.729-0.218,80.271-0.218,148.551c0,10.754,8.72,19.47,19.471,19.47
	c10.754,0,19.47-8.716,19.47-19.47c0-8.855,0-172.957,0-176.141c4.058,0,7.111,0,12.575,0c9.964,0,18.041-8.076,18.041-18.042
	V160.966C496.339,130.879,471.948,106.488,441.861,106.488z"/>
<g>
	<path style="fill:#37CAE2;" d="M37.143,357.44c-0.771-1.098-0.961-2.502-0.506-3.764l22.05-61.299c0,0,0-0.001,0.001-0.002
		c4.506-12.527-5.809-12.085-5.809-12.085l0.049-0.02c-9.48-0.476-17.054-8.315-17.054-17.914V161.25
		c0-29.9,24.324-54.225,54.223-54.225H69.884c-29.898,0-54.223,24.325-54.223,54.225v101.107c0,9.903,8.055,17.959,17.956,17.959
		h9.196l-26.389,73.361c-0.455,1.262-0.266,2.667,0.506,3.764c0.771,1.098,2.029,1.75,3.371,1.75h20.214
		C39.172,359.19,37.914,358.538,37.143,357.44z"/>
	<path style="fill:#37CAE2;" d="M383.737,492.495c0-3.275,0-161.435,0-163.141c0-13.049-10.958-13.186-10.958-13.186h-4.071
		c-8.797-1.2-15.585-8.727-15.585-17.857V160.966c0-30.087,24.39-54.478,54.476-54.478h-20.213
		c-30.086,0-54.476,24.391-54.476,54.478v137.346c0,9.13,6.787,16.656,15.585,17.857h15.029c0,5.772,0,172.198,0,176.327
		c0,15.165,16.621,24.515,29.577,16.618C387.495,505.695,383.737,499.541,383.737,492.495z"/>
</g>
<path style="fill:#D0F8FC;" d="M255.39,0.043c-7.113,0-12.877,5.766-12.877,12.877v486.192c0,7.111,5.764,12.877,12.877,12.877
	c7.111,0,12.877-5.766,12.877-12.877V12.92C268.267,5.81,262.501,0.043,255.39,0.043z"/>
<path style="fill:#B9F2FC;" d="M255.39,499.112V12.92c0-4.762,2.593-8.912,6.438-11.14c-8.574-4.969-19.314,1.245-19.314,11.14
	v486.192c0,9.895,10.74,16.109,19.314,11.14C257.983,508.024,255.39,503.874,255.39,499.112z"/>
<g>
	<path style="fill:#37CAE2;" d="M446.997,492.495c0-47.009,0.217-135.492,0.217-148.551c0-6.775-5.492-12.269-12.269-12.269H414.73
		c5.051,0,9.489,3.077,11.353,7.626c1.594,3.881,0.698-5.705,0.698,153.193c0,15.165,16.623,24.514,29.579,16.618
		C450.754,505.695,446.997,499.542,446.997,492.495z"/>
	<path style="fill:#37CAE2;" d="M66.345,491.578V372.705c0-11.38-8.883-13.263-13.116-13.514h-7.099v132.389
		c0,15.044,16.549,24.456,29.488,16.504C70.067,504.671,66.345,498.558,66.345,491.578z"/>
	<path style="fill:#37CAE2;" d="M129.313,491.578V372.705c0-11.38-8.883-13.263-13.116-13.514h-7.099v132.389
		c0,10.686,8.695,19.379,19.382,19.379c3.705,0,7.159-1.064,10.106-2.875C133.035,504.671,129.313,498.558,129.313,491.578z"/>
</g>
<g>
</g>
<g>
</g>
<g>
</g>
<g>
</g>
<g>
</g>
<g>
</g>
<g>
</g>
<g>
</g>
<g>
</g>
<g>
</g>
<g>
</g>
<g>
</g>
<g>
</g>
<g>
</g>
<g>
</g>
</svg>
