<?xml version="1.0" encoding="iso-8859-1"?>
<!-- Generator: Adobe Illustrator 19.0.0, SVG Export Plug-In . SVG Version: 6.00 Build 0)  -->
<svg version="1.1" id="Layer_1" xmlns="http://www.w3.org/2000/svg" xmlns:xlink="http://www.w3.org/1999/xlink" x="0px" y="0px"
	 viewBox="0 0 511.999 511.999" style="enable-background:new 0 0 511.999 511.999;" xml:space="preserve">
<path style="fill:#FCD170;" d="M458.558,367.975c-19.356-33.53-93.697-8.803-91.041,32.448c-5.201,3-131.182,75.739-136.952,79.071
	c-8.309,4.819-11.153,15.457-6.348,23.776c4.813,8.333,15.466,11.186,23.797,6.376c14.055-8.115,2.428-1.447,66.528-38.115h-0.001
	c46.737-26.02,10.564-6.404,70.396-40.936C419.338,453.528,477.914,401.493,458.558,367.975z"/>
<path style="fill:#F9A832;" d="M247.104,489.313c5.584-3.224,131.954-76.183,136.949-79.071
	c-2.068-32.152,42.798-54.232,71.388-46.601c-23.612-27.044-90.433-2.146-87.926,36.782c-5.201,3-131.182,75.739-136.952,79.071
	c-15.729,9.124-8.558,33.349,9.606,32.453C236.236,503.82,239.169,493.915,247.104,489.313z"/>
<path style="fill:#D9F2FC;" d="M345.062,53.773c-32.27-71.726-134.242-71.415-166.22,0.253
	C121.131,39.082,64.919,82.71,64.919,142.174c0,49.973,40.264,90.526,90.118,91.027v91.071c0,9.236,7.488,16.724,16.723,16.724
	h178.384c9.235,0,16.722-7.487,16.722-16.724v-91.047c50.254,0,91.051-40.729,91.051-91.05
	C457.918,83.291,402.683,39.605,345.062,53.773z"/>
<path style="fill:#B2DDEA;" d="M179.846,328.409v-79.123c0-6.894-3.708-11.658-12.354-12.912c-0.021-0.002-0.033-0.002-0.033-0.002
	l0.003-0.002c-4.243-0.622-8.393-1.534-12.425-2.719v90.622c0,9.236,7.488,16.724,16.723,16.724h13.824
	C182.076,337.931,179.846,333.434,179.846,328.409z"/>
<g>
	<path style="fill:#B8DDE8;" d="M206.371,258.917c-4.282,0-7.753,3.472-7.753,7.752v36.054h15.506v-36.054
		C214.124,262.388,210.652,258.917,206.371,258.917z"/>
	<path style="fill:#B8DDE8;" d="M259.328,258.917c-4.282,0-7.753,3.472-7.753,7.752v36.054h15.506v-36.054
		C267.08,262.388,263.61,258.917,259.328,258.917z"/>
	<path style="fill:#B8DDE8;" d="M312.286,258.917c-4.28,0-7.753,3.472-7.753,7.752v36.054h15.506v-36.054
		C320.039,262.388,316.568,258.917,312.286,258.917z"/>
</g>
<path style="fill:#EF6131;" d="M145.983,430.258c1.899,1.678-7.735-4.063,136.808,79.389c8.333,4.811,18.989,1.956,23.798-6.376
	c4.81-8.331,1.952-18.987-6.378-23.795c-143.075-82.606-134.71-77.969-137.157-78.784L145.983,430.258z"/>
<path style="fill:#E0451B;" d="M291.847,494.657c-144.213-83.261-134.875-77.683-136.808-79.389l8.343-14.45
	c-0.109-0.039-0.217-0.093-0.327-0.127l-17.071,29.566c1.899,1.678-7.735-4.063,136.808,79.389
	c11.494,6.635,25.921-1.54,26.124-14.811C303.757,497.653,297.308,497.812,291.847,494.657z"/>
<path style="fill:#88D2FF;" d="M155.038,298.723v25.55c0,9.236,7.488,16.724,16.723,16.724c7.855,0,170.693,0,178.384,0
	c9.235,0,16.722-7.487,16.722-16.724v-25.55H155.038z"/>
<path style="fill:#4BB3E8;" d="M179.846,328.409v-29.685h-24.809v25.55c0,9.236,7.488,16.724,16.723,16.724h13.824
	C182.076,337.931,179.846,333.434,179.846,328.409z"/>
<path style="fill:#E2E1E0;" d="M166.896,363.415l-61.754-35.657c-3.709-2.14-8.45-0.871-10.591,2.839
	c-2.141,3.708-0.871,8.448,2.836,10.59l61.756,35.654c4.283,2.474,5.756,7.972,3.284,12.255l-9.712,16.819l-69.834-40.317
	c-3.709-2.14-8.45-0.872-10.591,2.838c-2.141,3.708-0.87,8.448,2.837,10.591l69.835,40.316l-9.71,16.82
	c-2.474,4.283-7.972,5.757-12.257,3.284l-61.754-35.653c-3.707-2.14-8.45-0.871-10.59,2.837c-2.141,3.708-0.87,8.452,2.837,10.59
	l61.755,35.655c11.693,6.751,26.691,2.723,33.437-8.96l27.176-47.07C182.603,385.16,178.582,370.161,166.896,363.415z"/>
<path style="fill:#B2DDEA;" d="M178.843,54.027C121.131,39.082,64.919,82.71,64.919,142.174c0,49.442,39.415,89.657,88.534,90.992
	c-36.933-11.602-63.724-46.092-63.724-86.856c0-37.434,22.592-69.586,54.884-83.578h-0.006c0,0,25.202-11.625,49.558-8.293
	l-0.002-0.003c6.325,1.799,12.067-2.307,15.888-8.109c16.775-26.305,46.219-42.973,79.268-42.118
	C245.047-9.705,197.642,11.894,178.843,54.027z"/>
<g>
</g>
<g>
</g>
<g>
</g>
<g>
</g>
<g>
</g>
<g>
</g>
<g>
</g>
<g>
</g>
<g>
</g>
<g>
</g>
<g>
</g>
<g>
</g>
<g>
</g>
<g>
</g>
<g>
</g>
</svg>
