<?xml version="1.0" encoding="iso-8859-1"?>
<!-- Generator: Adobe Illustrator 19.0.0, SVG Export Plug-In . SVG Version: 6.00 Build 0)  -->
<svg xmlns="http://www.w3.org/2000/svg" xmlns:xlink="http://www.w3.org/1999/xlink" version="1.1" id="Layer_1" x="0px" y="0px" viewBox="0 0 512 512" style="enable-background:new 0 0 512 512;" xml:space="preserve" width="512" height="512">
<g>
	<polygon style="fill:#BBDCFF;" points="512,181 256,421 0,181 256,0  "/>
	<polygon style="fill:#9ABADB;" points="512,181 256,421 256,0  "/>
	<rect x="91" y="91" style="fill:#E0F4FF;" width="330" height="300"/>
	<rect x="256" y="91" style="fill:#BBDCFF;" width="165" height="300"/>
	<rect x="151" y="151" style="fill:#BBDCFF;" width="210" height="30"/>
	<rect x="181" y="211" style="fill:#BBDCFF;" width="150" height="30"/>
	<rect x="256" y="211" style="fill:#9ABADB;" width="75" height="30"/>
	<rect x="256" y="151" style="fill:#9ABADB;" width="105" height="30"/>
	<polygon style="fill:#979FEF;" points="512,181 512,512 0,512 0,181 210.099,328.599 204.401,358.599 236.201,347.199 256,361    275.799,347.199 307.599,358.599 301.901,328.599  "/>
	<polygon style="fill:#737EE6;" points="512,181 512,512 256,512 256,361 275.799,347.199 307.599,358.599 301.901,328.599  "/>
	<polygon style="fill:#737EE6;" points="84.32,448.48 236.344,347.124 210.075,328.583 67.68,423.52  "/>
	<polygon style="fill:#615AD3;" points="427.68,448.48 444.32,423.52 301.925,328.583 275.656,347.124  "/>
</g>















</svg>
