<svg height="512pt" viewBox="0 -99 512 512" width="512pt" xmlns="http://www.w3.org/2000/svg"><path d="m512 167.300781v69.371094c0 12.234375-9.914062 22.15625-22.15625 22.15625h-207.414062v-219.5h168.449218v97.980469c0 4.328125 3.515625 7.832031 7.84375 7.832031h31.121094c12.242188 0 22.15625 9.925781 22.15625 22.160156zm0 0" fill="#c2e7ef"/><path d="m450.878906 39.328125v80.769531h-90.972656c-6.601562 0-11.941406-5.34375-11.941406-11.941406v-68.828125zm0 0" fill="#d6f1f9"/><path d="m512 167.300781v69.371094c0 12.234375-9.914062 22.15625-22.15625 22.15625h-207.414062v-113.570313l4.058593-.117187h203.355469c12.242188 0 22.15625 9.925781 22.15625 22.160156zm0 0" fill="#285fb3"/><path d="m481.652344 64.074219h-199.230469v-48.742188h199.230469c12.125 0 21.957031 9.832031 21.957031 21.957031v4.828126c0 12.125-9.832031 21.957031-21.957031 21.957031zm0 0" fill="#1980f9"/><path d="m512 167.300781v49.699219h-229.570312v-71.742188l4.058593-.117187h203.355469c12.242188 0 22.15625 9.925781 22.15625 22.160156zm0 0" fill="#1980f9"/><path d="m319.929688 13.90625v244.921875h-306.023438c-7.683594 0-13.90625-6.230469-13.90625-13.90625v-231.015625c0-7.683594 6.222656-13.90625 13.90625-13.90625h292.105469c7.683593 0 13.917969 6.222656 13.917969 13.90625zm0 0" fill="#4395fb"/><path d="m319.929688 13.90625v203.09375h-306.023438c-7.683594 0-13.90625-6.230469-13.90625-13.90625v-189.1875c0-7.683594 6.222656-13.90625 13.90625-13.90625h292.105469c7.683593 0 13.917969 6.222656 13.917969 13.90625zm0 0" fill="#63a6fd"/><path d="m125.648438 210.902344c-26.464844-14.109375-59.355469-4.097656-73.464844 22.367187-14.113282 26.464844-4.097656 59.355469 22.367187 73.46875 26.464844 14.109375 59.355469 4.09375 73.464844-22.367187 14.113281-26.464844 4.097656-59.359375-22.367187-73.46875zm0 0" fill="#c8bebc"/><path d="m126.351562 258.828125c0 10.375-6.015624 19.34375-14.746093 23.601563-3.472657 1.703124-7.382813 2.65625-11.511719 2.65625-14.492188 0-26.246094-11.753907-26.246094-26.257813s11.753906-26.257813 26.246094-26.257813c4.128906 0 8.039062.953126 11.511719 2.65625 8.730469 4.257813 14.746093 13.230469 14.746093 23.601563zm0 0" fill="#274c93"/><path d="m372.378906 166.253906h-23.207031c-4.332031 0-7.84375 3.511719-7.84375 7.84375 0 4.332032 3.511719 7.839844 7.84375 7.839844h23.207031c4.335938 0 7.84375-3.507812 7.84375-7.839844 0-4.332031-3.511718-7.84375-7.84375-7.84375zm0 0" fill="#2e5aac"/><path d="m466.253906 258.828125c0 29.992187-24.3125 54.304687-54.304687 54.304687-29.992188 0-54.304688-24.3125-54.304688-54.304687 0-29.988281 24.3125-54.300781 54.304688-54.300781 29.992187 0 54.304687 24.3125 54.304687 54.300781zm0 0" fill="#c8bebc"/><path d="m438.207031 258.828125c0 10.375-6.023437 19.34375-14.753906 23.601563-3.484375 1.703124-7.382813 2.65625-11.503906 2.65625-14.503907 0-26.257813-11.753907-26.257813-26.257813s11.753906-26.257813 26.257813-26.257813c4.121093 0 8.019531.953126 11.503906 2.65625 8.730469 4.257813 14.753906 13.230469 14.753906 23.601563zm0 0" fill="#274c93"/><g fill="#285fb3"><path d="m126.351562 258.828125c0 10.375-6.015624 19.34375-14.746093 23.601563-8.730469-4.257813-14.753907-13.226563-14.753907-23.601563 0-10.371094 6.023438-19.34375 14.753907-23.601563 8.730469 4.257813 14.746093 13.230469 14.746093 23.601563zm0 0"/><path d="m438.207031 258.828125c0 10.375-6.023437 19.34375-14.753906 23.601563-8.734375-4.257813-14.757813-13.226563-14.757813-23.601563 0-10.371094 6.023438-19.34375 14.757813-23.601563 8.730469 4.257813 14.753906 13.230469 14.753906 23.601563zm0 0"/><path d="m49.867188 184.871094h220.183593v-1.882813c0-60.804687-49.289062-110.09375-110.089843-110.09375-60.800782 0-110.09375 49.289063-110.09375 110.09375zm0 0"/><path d="m137.304688 43.210938h14.8125v27.550781c0 4.332031 3.511718 7.84375 7.84375 7.84375 4.332031 0 7.839843-3.511719 7.839843-7.84375v-27.550781h14.816407c4.332031 0 7.84375-3.507813 7.84375-7.839844 0-4.335938-3.511719-7.84375-7.84375-7.84375h-45.3125c-4.335938 0-7.84375 3.507812-7.84375 7.84375 0 4.332031 3.507812 7.839844 7.84375 7.839844zm0 0"/><path d="m294.855469 177.023438h-269.789063c-4.332031 0-7.84375 3.507812-7.84375 7.839843 0 4.335938 3.511719 7.84375 7.84375 7.84375h269.789063c4.332031 0 7.839843-3.507812 7.839843-7.84375 0-4.332031-3.511718-7.839843-7.839843-7.839843zm0 0"/></g></svg>