<?xml version="1.0" encoding="iso-8859-1"?>
<!-- Generator: Adobe Illustrator 19.0.0, SVG Export Plug-In . SVG Version: 6.00 Build 0)  -->
<svg version="1.1" id="Capa_1" xmlns="http://www.w3.org/2000/svg" xmlns:xlink="http://www.w3.org/1999/xlink" x="0px" y="0px"
	 viewBox="0 0 511.999 511.999" style="enable-background:new 0 0 511.999 511.999;" xml:space="preserve">
<path style="fill:#E4EAF8;" d="M256,132.698c-4.142,0-7.5-3.358-7.5-7.5V12.343c0-4.142,3.358-7.5,7.5-7.5
	c4.142,0,7.5,3.358,7.5,7.5v112.854C263.501,129.34,260.143,132.698,256,132.698z"/>
<path style="fill:#FFC850;" d="M256,145.9c7.787,0,15.456,0.508,22.977,1.484V125.99c0-12.69-10.287-22.977-22.977-22.977
	c-12.691,0-22.977,10.287-22.977,22.977v21.393C240.545,146.408,248.213,145.9,256,145.9z"/>
<path style="fill:#F9B428;" d="M257.775,126.05c0-8.114,3.906-15.315,9.941-19.826c-3.431-2.038-7.434-3.211-11.715-3.211
	c-12.69,0-22.977,10.287-22.977,22.977v21.393c7.521-0.975,15.19-1.483,22.977-1.483c0.594,0,1.182,0.023,1.774,0.029V126.05z"/>
<g>
	<path style="fill:#FFC850;" d="M43.302,318.708c0-4.142-3.358-7.5-7.5-7.5H7.5c-4.142,0-7.5,3.358-7.5,7.5
		c0,4.142,3.358,7.5,7.5,7.5h28.301C39.943,326.208,43.302,322.85,43.302,318.708z"/>
	<path style="fill:#FFC850;" d="M48.057,368.991l-21.021,18.948c-3.077,2.773-3.323,7.516-0.549,10.593
		c2.774,3.078,7.517,3.322,10.593,0.549l21.021-18.948c3.077-2.773,3.323-7.516,0.549-10.593
		C55.876,366.463,51.133,366.217,48.057,368.991z"/>
	<path style="fill:#FFC850;" d="M58.101,257.282l-21.021-18.948c-3.076-2.773-7.819-2.528-10.593,0.549
		c-2.773,3.077-2.527,7.819,0.549,10.593l21.021,18.948c3.075,2.773,7.819,2.528,10.593-0.549
		C61.424,264.799,61.178,260.056,58.101,257.282z"/>
	<path style="fill:#FFC850;" d="M504.5,311.208h-28.301c-4.142,0-7.5,3.358-7.5,7.5c0,4.142,3.358,7.5,7.5,7.5h28.3
		c4.142,0,7.5-3.358,7.5-7.5C511.999,314.566,508.642,311.208,504.5,311.208z"/>
	<path style="fill:#FFC850;" d="M453.9,380.133l21.021,18.948c3.079,2.775,7.822,2.525,10.593-0.549
		c2.773-3.077,2.527-7.819-0.549-10.593l-21.021-18.948c-3.077-2.773-7.82-2.527-10.593,0.549
		C450.576,372.617,450.822,377.36,453.9,380.133z"/>
	<path style="fill:#FFC850;" d="M463.943,268.425l21.021-18.948c3.077-2.773,3.323-7.516,0.549-10.593
		c-2.773-3.077-7.516-3.323-10.593-0.549L453.9,257.283c-3.077,2.773-3.323,7.516-0.549,10.593
		C456.125,270.953,460.868,271.197,463.943,268.425z"/>
</g>
<g>
	<path style="fill:#00C3FF;" d="M424.556,490.283c4.142,0,7.5-3.358,7.5-7.5v-4.122h4.122c4.142,0,7.5-3.358,7.5-7.5
		s-3.358-7.5-7.5-7.5h-4.122v-4.122c0-4.142-3.358-7.5-7.5-7.5c-4.142,0-7.5,3.358-7.5,7.5v4.122h-4.122c-4.142,0-7.5,3.358-7.5,7.5
		s3.358,7.5,7.5,7.5h4.122v4.122C417.055,486.925,420.413,490.283,424.556,490.283z"/>
	<path style="fill:#00C3FF;" d="M420.434,112.849c0-4.142-3.358-7.5-7.5-7.5c-4.142,0-7.5,3.358-7.5,7.5v15.579h-15.578
		c-4.142,0-7.5,3.358-7.5,7.5c0,4.142,3.358,7.5,7.5,7.5h15.578v15.578c0,4.142,3.358,7.5,7.5,7.5c4.142,0,7.5-3.358,7.5-7.5
		v-15.578h15.578c4.142,0,7.5-3.358,7.5-7.5c0-4.142-3.358-7.5-7.5-7.5h-15.578V112.849z"/>
	<path style="fill:#00C3FF;" d="M105.778,170.425v-4.122h4.122c4.142,0,7.5-3.358,7.5-7.5c0-4.142-3.358-7.5-7.5-7.5h-4.122v-4.122
		c0-4.142-3.358-7.5-7.5-7.5s-7.5,3.358-7.5,7.5v4.122h-4.122c-4.142,0-7.5,3.358-7.5,7.5c0,4.142,3.358,7.5,7.5,7.5h4.122v4.122
		c0,4.142,3.358,7.5,7.5,7.5S105.778,174.567,105.778,170.425z"/>
	<circle style="fill:#00C3FF;" cx="256.005" cy="322.829" r="176.921"/>
</g>
<path style="fill:#03B4F2;" d="M107.492,322.824c0-92.93,71.648-169.119,162.717-176.357c-4.687-0.373-9.425-0.569-14.209-0.569
	c-97.713,0-176.926,79.212-176.926,176.926c0,97.713,79.212,176.926,176.926,176.926c4.783,0,9.521-0.196,14.209-0.569
	C179.14,491.943,107.492,415.755,107.492,322.824z"/>
<path style="fill:#5BDDFC;" d="M440.426,322.824c0-101.971-82.891-184.426-184.426-184.426
	c-102.084,0-184.426,83.087-184.426,184.426c0,0.039,0.002,0.077,0.002,0.116c0.023,34.394,9.698,67.218,26.254,94.763
	c71.598,119.159,244.629,119.382,316.34,0C430.645,390.293,440.426,357.492,440.426,322.824z M108.635,239.31h39.803
	c-7.328,22.182-11.663,46.556-12.68,71.897H86.981C89.009,285.518,95.669,262.099,108.635,239.31z M425.019,311.208h-48.777
	c-1.017-25.341-5.351-49.714-12.679-71.897h39.803C415.687,260.966,423.253,285.392,425.019,311.208z M361.232,311.208h-53.768
	c-0.404-25.386-2.126-49.777-5.038-71.897h45.295C355.526,261.207,360.154,285.645,361.232,311.208z M219.54,311.208
	c0.413-25.508,2.181-49.926,5.165-71.897h62.591c2.984,21.971,4.752,46.39,5.165,71.897H219.54z M292.547,326.208
	c-0.133,28.481-1.947,55.805-5.251,80.13h-62.591c-3.304-24.325-5.118-51.649-5.251-80.13H292.547z M300.21,224.309
	c-3.374-20.503-9.419-47.967-19.343-66.12c28.176,11.036,48.501,38.714,60.832,66.12H300.21z M279.875,199.532
	c1.915,7.691,3.626,15.989,5.127,24.778h-58.006c1.501-8.789,3.212-17.086,5.127-24.778c9.087-36.49,19.59-46.132,23.875-46.132
	C260.285,153.4,270.788,163.042,279.875,199.532z M231.134,158.189c-9.926,18.154-15.969,45.617-19.344,66.12h-41.489
	C182.63,196.911,202.959,169.225,231.134,158.189z M209.576,239.31c-2.911,22.12-4.634,46.511-5.038,71.897h-53.768
	c1.078-25.563,5.706-50.001,13.513-71.897L209.576,239.31L209.576,239.31z M86.63,326.208h48.914
	c0.329,28.29,4.775,55.554,12.894,80.13h-39.803C94.3,381.143,87.166,353.656,86.63,326.208z M150.544,326.208h53.909
	c0.13,28.34,1.898,55.628,5.123,80.13h-45.295C155.64,382.101,150.892,354.75,150.544,326.208z M211.791,421.339
	c3.375,20.509,9.419,47.967,19.344,66.121c-28.182-11.039-48.506-38.723-60.833-66.121H211.791z M232.125,446.118
	c-1.915-7.691-3.626-15.99-5.127-24.777h58.006c-1.501,8.789-3.212,17.086-5.127,24.777c-9.087,36.49-19.59,46.132-23.875,46.132
	C251.715,492.25,241.212,482.608,232.125,446.118z M280.866,487.46c9.929-18.159,15.972-45.627,19.344-66.121h41.488
	C329.375,448.729,309.048,476.422,280.866,487.46z M302.424,406.338c3.225-24.501,4.992-51.79,5.123-80.13h53.908
	c-0.348,28.542-5.096,55.893-13.738,80.13H302.424z M376.457,326.208h48.913c-0.545,27.906-7.895,55.333-22.003,80.13h-39.804
	C371.682,381.763,376.128,354.497,376.457,326.208z M393.759,224.309h-35.746c-8.834-21.444-21.601-42.505-38.57-58.575
	C349.418,177.885,375.157,198.371,393.759,224.309z M192.558,165.736c-16.972,16.072-29.739,37.133-38.57,58.574h-35.745
	C136.844,198.371,162.582,177.885,192.558,165.736z M118.241,421.339h35.746c8.832,21.44,21.602,42.506,38.571,58.575
	C162.582,467.764,136.844,447.278,118.241,421.339z M319.441,479.915c16.97-16.07,29.737-37.128,38.571-58.575h35.746
	C375.157,447.278,349.418,467.764,319.441,479.915z"/>
<path style="fill:#37CAE2;" d="M284.416,499.75c-39.526,0-76.022-12.966-105.475-34.87c4.198,5.349,8.728,10.405,13.617,15.034
	c-29.977-12.151-55.714-32.636-74.318-58.575h19.199c-3.248-4.836-6.26-9.843-9.028-15.001h-19.779
	c-14.335-25.196-21.468-52.682-22.004-80.13h20.904c-0.021-1.126-0.043-2.252-0.043-3.383c0-3.904,0.14-7.775,0.389-11.618H86.981
	c2.028-25.69,8.688-49.108,21.652-71.897h19.779c2.767-5.158,5.779-10.165,9.028-15.001h-19.198
	c18.602-25.939,44.34-46.424,74.316-58.574c-4.89,4.63-9.419,9.686-13.618,15.035c29.454-21.905,65.95-34.871,105.476-34.871
	c11.423,0,22.587,1.095,33.408,3.163c-19.344-6.897-40.157-10.664-61.824-10.664c-102.084,0-184.426,83.087-184.426,184.426
	c0,0.039,0.002,0.077,0.002,0.116c0.022,34.394,9.698,67.218,26.254,94.763c48.176,80.179,142.276,106.503,220.532,78.78
	C307.375,498.619,296.029,499.75,284.416,499.75z"/>
<g>
</g>
<g>
</g>
<g>
</g>
<g>
</g>
<g>
</g>
<g>
</g>
<g>
</g>
<g>
</g>
<g>
</g>
<g>
</g>
<g>
</g>
<g>
</g>
<g>
</g>
<g>
</g>
<g>
</g>
</svg>
