<svg height="512pt" viewBox="0 -28 512 512" width="512pt" xmlns="http://www.w3.org/2000/svg"><path d="m512 42.089844v372.441406c0 23.25-18.851562 42.089844-42.089844 42.089844h-427.820312c-23.25 0-42.089844-18.839844-42.089844-42.089844v-372.441406c0-23.25 18.839844-42.089844 42.089844-42.089844h427.820312c23.238282 0 42.089844 18.839844 42.089844 42.089844zm0 0" fill="#b7d0e5"/><path d="m512 42.089844v82.179687c0 23.25-18.851562 42.089844-42.089844 42.089844h-427.820312c-23.25 0-42.089844-18.839844-42.089844-42.089844v-82.179687c0-23.25 18.839844-42.089844 42.089844-42.089844h427.820312c23.238282 0 42.089844 18.839844 42.089844 42.089844zm0 0" fill="#6399cc"/><path d="m207.507812 360.550781c-16.519531 16.511719-37.386718 26.007813-58.902343 28.496094-29.164063 3.375-59.527344-6.125-81.898438-28.496094-38.882812-38.878906-38.882812-101.917969 0-140.796875 22.371094-22.371094 52.734375-31.871094 81.898438-28.496094 21.515625 2.476563 42.382812 11.976563 58.902343 28.496094 38.878907 38.878906 38.878907 101.917969 0 140.796875zm0 0" fill="#27425b"/><path d="m207.507812 360.550781c-16.519531 16.511719-37.386718 26.007813-58.902343 28.496094-21.535157-2.488281-42.402344-11.984375-58.910157-28.496094-38.882812-38.878906-38.882812-101.917969 0-140.796875 16.507813-16.519531 37.375-26.019531 58.910157-28.496094 21.515625 2.476563 42.382812 11.976563 58.902343 28.496094 38.878907 38.878906 38.878907 101.917969 0 140.796875zm0 0" fill="#405872"/><path d="m474.453125 290.148438c0 54.988281-44.574219 99.5625-99.5625 99.5625s-99.5625-44.574219-99.5625-99.5625c0-54.984376 44.574219-99.5625 99.5625-99.5625s99.5625 44.578124 99.5625 99.5625zm0 0" fill="#27425b"/><path d="m445.289062 360.550781c-16.519531 16.507813-37.386718 26.007813-58.898437 28.492188-21.535156-2.484375-42.402344-11.984375-58.914063-28.492188-38.878906-38.882812-38.878906-101.917969 0-140.800781 16.511719-16.519531 37.378907-26.015625 58.914063-28.492188 21.511719 2.476563 42.378906 11.972657 58.898437 28.492188 38.882813 38.882812 38.882813 101.917969 0 140.800781zm0 0" fill="#405872"/><g fill="#27425b"><path d="m137.101562 397.546875c-28.6875 0-55.65625-11.167969-75.941406-31.457031-41.875-41.871094-41.875-110.007813 0-151.882813s110.011719-41.875 151.886719 0c20.285156 20.285157 31.453125 47.253907 31.453125 75.941407s-11.167969 55.660156-31.453125 75.941406c-20.285156 20.285156-47.257813 31.457031-75.945313 31.457031zm0-199.078125c-23.488281 0-46.972656 8.9375-64.859374 26.820312-35.761719 35.765626-35.761719 93.957032 0 129.71875 17.328124 17.324219 40.359374 26.867188 64.859374 26.867188 24.503907 0 47.535157-9.542969 64.859376-26.867188 17.324218-17.324218 26.867187-40.359374 26.867187-64.859374s-9.542969-47.535157-26.867187-64.859376c-17.878907-17.878906-41.371094-26.820312-64.859376-26.820312zm0 0"/><path d="m207.503906 368.386719c-2.003906 0-4.011718-.765625-5.539062-2.296875l-53.996094-53.992188c-3.058594-3.058594-3.058594-8.023437 0-11.082031 3.0625-3.058594 8.023438-3.058594 11.082031 0l53.996094 53.992187c3.058594 3.0625 3.058594 8.023438 0 11.082032-1.53125 1.53125-3.539063 2.296875-5.542969 2.296875zm0 0"/><path d="m374.890625 397.546875c-28.6875 0-55.65625-11.167969-75.941406-31.457031-41.875-41.871094-41.875-110.007813 0-151.882813 20.285156-20.285156 47.253906-31.457031 75.941406-31.457031s55.65625 11.171875 75.941406 31.457031c41.875 41.875 41.875 110.011719 0 151.882813-20.285156 20.285156-47.253906 31.457031-75.941406 31.457031zm-64.859375-172.257813c-35.765625 35.765626-35.765625 93.957032 0 129.71875 17.324219 17.324219 40.359375 26.867188 64.859375 26.867188s47.535156-9.542969 64.859375-26.867188c35.761719-35.761718 35.761719-93.953124 0-129.71875-35.765625-35.761718-93.953125-35.761718-129.71875 0zm0 0"/><path d="m391.296875 281.578125c-2.003906 0-4.011719-.765625-5.539063-2.292969-3.0625-3.0625-3.0625-8.023437 0-11.082031l53.992188-53.996094c3.058594-3.058593 8.023438-3.058593 11.082031 0 3.058594 3.0625 3.058594 8.023438 0 11.082031l-53.992187 53.996094c-1.53125 1.527344-3.539063 2.292969-5.542969 2.292969zm0 0"/></g><path d="m285.253906 403.332031c0 16.15625-13.097656 29.253907-29.257812 29.253907-16.15625 0-29.257813-13.097657-29.257813-29.253907 0-16.160156 13.101563-29.257812 29.257813-29.257812 16.160156 0 29.257812 13.097656 29.257812 29.257812zm0 0" fill="#6399cc"/><path d="m449.296875 420.046875c0-4.324219 3.511719-7.835937 7.835937-7.835937 4.335938 0 7.835938 3.511718 7.835938 7.835937s-3.5 7.835937-7.835938 7.835937c-4.324218 0-7.835937-3.507812-7.835937-7.835937zm-31.335937 0c0-4.324219 3.5-7.835937 7.835937-7.835937 4.328125 0 7.835937 3.511718 7.835937 7.835937s-3.507812 7.835937-7.835937 7.835937c-4.335937 0-7.835937-3.507812-7.835937-7.835937zm-31.359376 0c0-4.324219 3.511719-7.835937 7.839844-7.835937 4.335938 0 7.835938 3.511718 7.835938 7.835937s-3.5 7.835937-7.835938 7.835937c-4.328125 0-7.839844-3.507812-7.839844-7.835937zm-31.335937 0c0-4.324219 3.503906-7.835937 7.839844-7.835937 4.324219 0 7.835937 3.511718 7.835937 7.835937s-3.511718 7.835937-7.835937 7.835937c-4.339844 0-7.839844-3.507812-7.839844-7.835937zm-31.355469 0c0-4.324219 3.507813-7.835937 7.847656-7.835937 4.324219 0 7.835938 3.511718 7.835938 7.835937s-3.511719 7.835937-7.835938 7.835937c-4.339843 0-7.847656-3.507812-7.847656-7.835937zm0 0" fill="#f96065"/><path d="m166.128906 420.046875c0-4.324219 3.511719-7.835937 7.847656-7.835937 4.324219 0 7.828126 3.511718 7.828126 7.835937s-3.503907 7.835937-7.828126 7.835937c-4.335937 0-7.847656-3.507812-7.847656-7.835937zm-31.347656 0c0-4.324219 3.511719-7.835937 7.847656-7.835937 4.328125 0 7.835938 3.511718 7.835938 7.835937s-3.507813 7.835937-7.835938 7.835937c-4.335937 0-7.847656-3.507812-7.847656-7.835937zm-31.347656 0c0-4.324219 3.511718-7.835937 7.847656-7.835937 4.328125 0 7.839844 3.511718 7.839844 7.835937s-3.511719 7.835937-7.839844 7.835937c-4.335938 0-7.847656-3.507812-7.847656-7.835937zm-31.34375 0c0-4.324219 3.507812-7.835937 7.835937-7.835937 4.335938 0 7.847657 3.511718 7.847657 7.835937s-3.511719 7.835937-7.847657 7.835937c-4.328125 0-7.835937-3.507812-7.835937-7.835937zm-31.335938 0c0-4.324219 3.5-7.835937 7.824219-7.835937 4.335937 0 7.847656 3.511718 7.847656 7.835937s-3.511719 7.835937-7.847656 7.835937c-4.324219 0-7.824219-3.507812-7.824219-7.835937zm0 0" fill="#f96065"/><path d="m253.910156 139.210938c-7.503906 0-13.582031-6.082032-13.582031-13.585938v-81.5c0-7.503906 6.078125-13.585938 13.582031-13.585938s13.582032 6.082032 13.582032 13.585938v81.5c0 7.503906-6.078126 13.585938-13.582032 13.585938zm0 0" fill="#405872"/><path d="m274.460938 84.875c0 11.347656-9.203126 20.550781-20.550782 20.550781s-20.550781-9.203125-20.550781-20.550781 9.203125-20.550781 20.550781-20.550781 20.550782 9.203125 20.550782 20.550781zm0 0" fill="#f6d269"/><path d="m320.4375 139.210938c-7.503906 0-13.585938-6.082032-13.585938-13.585938v-81.5c0-7.503906 6.082032-13.585938 13.585938-13.585938 7.5 0 13.582031 6.082032 13.582031 13.585938v81.5c0 7.503906-6.082031 13.585938-13.582031 13.585938zm0 0" fill="#405872"/><path d="m340.984375 51.089844c0 11.347656-9.199219 20.550781-20.546875 20.550781-11.351562 0-20.550781-9.203125-20.550781-20.550781 0-11.351563 9.199219-20.550782 20.550781-20.550782 11.347656 0 20.546875 9.199219 20.546875 20.550782zm0 0" fill="#f6d269"/><path d="m386.960938 139.210938c-7.503907 0-13.585938-6.082032-13.585938-13.585938v-81.5c0-7.503906 6.082031-13.585938 13.585938-13.585938 7.5 0 13.582031 6.082032 13.582031 13.585938v81.5c0 7.503906-6.082031 13.585938-13.582031 13.585938zm0 0" fill="#405872"/><path d="m407.511719 118.660156c0 11.347656-9.203125 20.550782-20.550781 20.550782-11.351563 0-20.550782-9.203126-20.550782-20.550782 0-11.351562 9.199219-20.550781 20.550782-20.550781 11.347656 0 20.550781 9.199219 20.550781 20.550781zm0 0" fill="#f6d269"/><path d="m453.484375 139.210938c-7.5 0-13.582031-6.082032-13.582031-13.585938v-81.5c0-7.503906 6.082031-13.585938 13.582031-13.585938 7.503906 0 13.585937 6.082032 13.585937 13.585938v81.5c0 7.503906-6.082031 13.585938-13.585937 13.585938zm0 0" fill="#405872"/><path d="m474.035156 74.425781c0 11.347657-9.199218 20.550781-20.550781 20.550781-11.347656 0-20.546875-9.203124-20.546875-20.550781 0-11.351562 9.199219-20.550781 20.546875-20.550781 11.351563 0 20.550781 9.199219 20.550781 20.550781zm0 0" fill="#f6d269"/><path d="m54.335938 139.210938c-7.503907 0-13.585938-6.082032-13.585938-13.585938v-81.5c0-7.503906 6.082031-13.585938 13.585938-13.585938 7.5 0 13.582031 6.082032 13.582031 13.585938v81.5c0 7.503906-6.082031 13.585938-13.582031 13.585938zm0 0" fill="#405872"/><path d="m74.882812 84.875c0 11.347656-9.199218 20.550781-20.546874 20.550781-11.351563 0-20.550782-9.203125-20.550782-20.550781s9.199219-20.550781 20.550782-20.550781c11.347656 0 20.546874 9.203125 20.546874 20.550781zm0 0" fill="#f6d269"/><path d="m120.859375 139.210938c-7.5 0-13.582031-6.082032-13.582031-13.585938v-81.5c0-7.503906 6.082031-13.585938 13.582031-13.585938 7.503906 0 13.585937 6.082032 13.585937 13.585938v81.5c0 7.503906-6.082031 13.585938-13.585937 13.585938zm0 0" fill="#405872"/><path d="m141.410156 51.089844c0 11.347656-9.199218 20.550781-20.550781 20.550781-11.347656 0-20.550781-9.203125-20.550781-20.550781 0-11.351563 9.203125-20.550782 20.550781-20.550782 11.351563 0 20.550781 9.199219 20.550781 20.550782zm0 0" fill="#f6d269"/><path d="m187.382812 139.210938c-7.5 0-13.582031-6.082032-13.582031-13.585938v-81.5c0-7.503906 6.082031-13.585938 13.582031-13.585938 7.503907 0 13.585938 6.082032 13.585938 13.585938v81.5c0 7.503906-6.082031 13.585938-13.585938 13.585938zm0 0" fill="#405872"/><path d="m207.933594 118.660156c0 11.347656-9.199219 20.550782-20.550782 20.550782-11.347656 0-20.546874-9.203126-20.546874-20.550782 0-11.351562 9.199218-20.550781 20.546874-20.550781 11.351563 0 20.550782 9.199219 20.550782 20.550781zm0 0" fill="#f6d269"/><path d="m160.304688 290.148438c0 12.816406-10.386719 23.203124-23.203126 23.203124-12.8125 0-23.203124-10.386718-23.203124-23.203124 0-12.8125 10.390624-23.203126 23.203124-23.203126 12.816407 0 23.203126 10.390626 23.203126 23.203126zm0 0" fill="#27425b"/><path d="m398.09375 290.148438c0 12.816406-10.386719 23.203124-23.203125 23.203124s-23.203125-10.386718-23.203125-23.203124c0-12.8125 10.386719-23.203126 23.203125-23.203126s23.203125 10.390626 23.203125 23.203126zm0 0" fill="#27425b"/></svg>