<?xml version="1.0" encoding="iso-8859-1"?>
<!-- Generator: Adobe Illustrator 19.0.0, SVG Export Plug-In . SVG Version: 6.00 Build 0)  -->
<svg version="1.1" id="Capa_1" xmlns="http://www.w3.org/2000/svg" xmlns:xlink="http://www.w3.org/1999/xlink" x="0px" y="0px"
	 viewBox="0 0 512.001 512.001" style="enable-background:new 0 0 512.001 512.001;" xml:space="preserve">
<g>
	<path style="fill:#B39A7C;" d="M130.069,432.73L130.069,432.73c-8.489,0-15.434-6.945-15.434-15.434V294.66
		c0-8.489,6.945-15.434,15.434-15.434l0,0c8.489,0,15.434,6.945,15.434,15.434v122.637
		C145.502,425.786,138.558,432.73,130.069,432.73z"/>
	<path style="fill:#B39A7C;" d="M376.511,432.73L376.511,432.73c-8.489,0-15.434-6.945-15.434-15.434V294.66
		c0-8.489,6.945-15.434,15.434-15.434l0,0c8.489,0,15.434,6.945,15.434,15.434v122.637C391.945,425.786,385,432.73,376.511,432.73z"
		/>
</g>
<g>
	<path style="fill:#957856;" d="M130.069,279.226L130.069,279.226c-8.489,0-15.434,6.945-15.434,15.434v88.176
		c11.54-4.675,29.666-18.315,30.867-19.192v-68.983C145.502,286.171,138.558,279.226,130.069,279.226z"/>
	<path style="fill:#957856;" d="M376.511,279.226L376.511,279.226c-8.489,0-15.434,6.945-15.434,15.434v65.35
		c2.803,1.633,22.023,16.101,30.867,20.411v-85.762C391.945,286.171,385,279.226,376.511,279.226z"/>
</g>
<path style="fill:#D1E7F8;" d="M415.598,79.271H96.403c-17.308,0-32.249,12.244-35.521,29.24
	C42.5,203.98,16.678,269.313,1.853,301.663c-4.837,10.554,0.131,23.18,11.017,27.215c23.506,8.714,30.813,29.63,65.888,29.63
	c44.306,0,44.306-33.372,88.613-33.372c44.308,0,46.248,33.372,88.643,33.372c42.395,0,44.308-33.372,88.617-33.372
	c44.307,0,44.307,33.372,88.613,33.372c35.076,0,42.383-20.916,65.888-29.63c10.885-4.035,15.852-16.661,11.017-27.215
	c-14.825-32.351-40.647-97.684-59.028-193.154C447.847,91.514,432.906,79.271,415.598,79.271z"/>
<path style="fill:#B9D8F4;" d="M60.881,108.51C42.5,203.98,16.678,269.313,1.853,301.663c-4.837,10.554,0.131,23.179,11.017,27.215
	c23.506,8.715,30.813,29.63,65.888,29.63c44.306,0,44.306-33.372,88.613-33.372c17.761,0,28.713,5.363,38.193,11.789
	c-11.234-39.98-3.194-75.093-3.194-75.093c21.506-84.942,28.223-147.925,30.254-182.563l0,0H96.403
	C79.095,79.271,64.154,91.514,60.881,108.51z"/>
<path style="fill:#FFEB99;" d="M381.939,153.004c0,0-63.579,12.824-125.939,12.824s-125.939-12.824-125.939-12.824
	S159.884,219.903,256,219.903S381.939,153.004,381.939,153.004z"/>
<path style="fill:#FFD422;" d="M222.747,164.739c-49.842-3.096-92.686-11.735-92.686-11.735s19.695,44.178,78.655,60.733
	c1.455-15.985,9.268-22.134,9.268-22.134C211.074,171.901,222.744,164.741,222.747,164.739z"/>
<path style="fill:#FFF5CC;" d="M130.062,153.004c0,0,10.683,84.037,125.939,84.037s125.939-84.037,125.939-84.037
	S333.672,195.022,256,195.022S130.062,153.004,130.062,153.004z"/>
<path style="fill:#FFEB99;" d="M209.628,231.614c-5.087-29.461,8.358-40.011,8.358-40.011c0-0.001,0-0.001-0.001-0.002
	c-55.085-10.016-87.923-38.597-87.923-38.597S137.697,213.021,209.628,231.614z"/>
<path style="fill:#FFD422;" d="M48.654,163.936l0.008,0.002c-14.339,12.303-7.403,27.8-7.403,27.8l-0.378,24.558
	c67.165-13.907,89.181-63.293,89.181-63.293S93.507,160.371,48.654,163.936z"/>
<g>
	<path style="fill:#FFEB99;" d="M41.259,191.739c0.007,0.005,0.027,0.019,0.027,0.019c-25.212,19.576-13.651,43.867-13.589,43.996
		c93.168-10.537,102.365-82.749,102.365-82.749S96.862,181.865,41.259,191.739z"/>
	<path style="fill:#FFEB99;" d="M463.347,163.936l-0.008,0.002c14.339,12.303,7.403,27.8,7.403,27.8l0.378,24.558
		c-67.165-13.907-89.181-63.293-89.181-63.293S418.494,160.371,463.347,163.936z"/>
</g>
<path style="fill:#FFF5CC;" d="M470.742,191.739c-0.007,0.005-0.027,0.019-0.027,0.019c25.212,19.576,13.651,43.867,13.589,43.996
	c-93.168-10.537-102.365-82.749-102.365-82.749S415.139,181.865,470.742,191.739z"/>
<circle style="fill:#96C8EF;" cx="381.94" cy="153.003" r="20.862"/>
<circle style="fill:#78B9EB;" cx="130.061" cy="153.003" r="20.862"/>
<g>
</g>
<g>
</g>
<g>
</g>
<g>
</g>
<g>
</g>
<g>
</g>
<g>
</g>
<g>
</g>
<g>
</g>
<g>
</g>
<g>
</g>
<g>
</g>
<g>
</g>
<g>
</g>
<g>
</g>
</svg>
