<svg viewBox="1 -65 511.999 511" xmlns="http://www.w3.org/2000/svg"><path d="m154.945312 342.921875-5.347656 14.261719-6.902344 18.394531c-1.511718 4.054687-5.378906 6.726563-9.699218 6.726563h-25.125c-5.71875 0-10.363282-4.632813-10.363282-10.363282v-29.019531zm0 0" fill="#d1ede7"/><path d="m97.507812 342.921875h57.4375l-5.347656 14.261719h-52.089844zm0 0" fill="#abddd4"/><path d="m414.492188 342.921875v29.019531c0 5.730469-4.644532 10.363282-10.363282 10.363282h-25.125c-4.320312 0-8.1875-2.671876-9.699218-6.726563l-6.902344-18.394531-5.347656-14.261719zm0 0" fill="#d1ede7"/><path d="m414.492188 342.921875v14.261719h-52.089844l-5.347656-14.261719zm0 0" fill="#abddd4"/><path d="m0 334.382812v-323.519531c0-5.722656 4.640625-10.363281 10.363281-10.363281h491.273438c5.722656 0 10.363281 4.640625 10.363281 10.363281v323.519531c0 5.722657-4.640625 10.363282-10.363281 10.363282h-491.273438c-5.722656 0-10.363281-4.640625-10.363281-10.363282zm0 0" fill="#097789"/><path d="m487.121094 35.734375v250.972656c0 5.726563-4.636719 10.363281-10.363282 10.363281h-441.515624c-5.726563 0-10.363282-4.636718-10.363282-10.363281v-250.972656c0-5.71875 4.636719-10.363281 10.363282-10.363281h441.515624c5.726563 0 10.363282 4.644531 10.363282 10.363281zm0 0" fill="#3ad391"/><path d="m407.796875 25.371094-271.699219 271.699218h-53.777344l271.703126-271.699218zm0 0" fill="#53f4a0"/><path d="m487.121094 35.734375v29.8125l-231.523438 231.523437h-92.34375l271.699219-271.699218h41.804687c5.726563 0 10.363282 4.644531 10.363282 10.363281zm0 0" fill="#53f4a0"/><g fill="#d1ede7"><path d="m87.964844 52.910156h-26.582032c-4.269531 0-7.726562 3.457032-7.726562 7.722656 0 4.269532 3.457031 7.726563 7.726562 7.726563h5.5625v25.519531c0 4.269532 3.460938 7.726563 7.726563 7.726563s7.726563-3.457031 7.726563-7.726563v-25.519531h5.566406c4.265625 0 7.726562-3.457031 7.726562-7.726563 0-4.265624-3.460937-7.722656-7.726562-7.722656zm0 0"/><path d="m119.382812 101.605469c-3.089843 0-5.882812-1.839844-7.101562-4.679688l-14.25-33.246093c-1.679688-3.921876.132812-8.464844 4.058594-10.144532 3.917968-1.683594 8.460937.132813 10.144531 4.054688l7.148437 16.679687 7.148438-16.679687c1.683594-3.921875 6.226562-5.738282 10.144531-4.054688 3.921875 1.679688 5.738281 6.222656 4.058594 10.144532l-14.25 33.246093c-1.214844 2.839844-4.007813 4.679688-7.101563 4.679688zm0 0"/></g></svg>